<svg width="23" height="27" viewBox="0 0 23 27" fill="none" xmlns="http://www.w3.org/2000/svg">
<path d="M18.4395 13.8691C18.4277 11.7188 19.4004 10.0957 21.3691 8.90039C20.2676 7.32422 18.6035 6.45703 16.4062 6.28711C14.3262 6.12305 12.0527 7.5 11.2207 7.5C10.3418 7.5 8.32617 6.3457 6.74414 6.3457C3.47461 6.39844 0 8.95312 0 14.1504C0 15.6855 0.28125 17.2715 0.84375 18.9082C1.59375 21.0586 4.30078 26.332 7.125 26.2441C8.60156 26.209 9.64453 25.1953 11.5664 25.1953C13.4297 25.1953 14.3965 26.2441 16.043 26.2441C18.8906 26.2031 21.3398 21.4102 22.0547 19.2539C18.2344 17.4551 18.4395 13.9805 18.4395 13.8691ZM15.123 4.24805C16.7227 2.34961 16.5762 0.621094 16.5293 0C15.1172 0.0820312 13.4824 0.960938 12.5508 2.04492C11.5254 3.20508 10.9219 4.64062 11.0508 6.25781C12.5801 6.375 13.9746 5.58984 15.123 4.24805Z" fill="white"/>
</svg>
