<svg width="52" height="52" viewBox="0 0 52 52" fill="none" xmlns="http://www.w3.org/2000/svg">
<path d="M26 0C40.3594 0 52 11.6406 52 26C52 40.3594 40.3594 52 26 52C11.6406 52 0 40.3594 0 26C0 11.6406 11.6406 0 26 0Z" fill="#DCFCE7"/>
<path d="M26 0C40.3594 0 52 11.6406 52 26C52 40.3594 40.3594 52 26 52C11.6406 52 0 40.3594 0 26C0 11.6406 11.6406 0 26 0Z" stroke="#E5E7EB"/>
<path d="M34.5 38H17V14H34.5V38Z" stroke="#E5E7EB"/>
<g clip-path="url(#clip0_317_62)">
<path d="M34.1328 19.6172C34.6211 20.1055 34.6211 20.8984 34.1328 21.3867L24.1328 31.3867C23.6445 31.875 22.8516 31.875 22.3633 31.3867L17.3633 26.3867C16.875 25.8984 16.875 25.1055 17.3633 24.6172C17.8516 24.1289 18.6445 24.1289 19.1328 24.6172L23.25 28.7305L32.3672 19.6172C32.8555 19.1289 33.6484 19.1289 34.1367 19.6172H34.1328Z" fill="#16A34A"/>
</g>
<defs>
<clipPath id="clip0_317_62">
<path d="M17 15.5H34.5V35.5H17V15.5Z" fill="white"/>
</clipPath>
</defs>
</svg>
