<svg width="552" height="344" viewBox="0 0 552 344" fill="none" xmlns="http://www.w3.org/2000/svg">
<path d="M0 24C0 10.7452 10.7452 0 24 0H528C541.255 0 552 10.7452 552 24V320C552 333.255 541.255 344 528 344H24C10.7452 344 0 333.255 0 320V24Z" fill="white"/>
<path d="M236 72C236 49.9086 253.909 32 276 32C298.091 32 316 49.9086 316 72C316 94.0914 298.091 112 276 112C253.909 112 236 94.0914 236 72Z" fill="url(#paint0_linear_2172_176)"/>
<g clip-path="url(#clip0_2172_176)">
<path d="M276 59.5625C269.268 59.5625 263.812 65.0176 263.812 71.75V74.0938C263.812 74.873 263.186 75.5 262.406 75.5C261.627 75.5 261 74.873 261 74.0938V71.75C261 63.4648 267.715 56.75 276 56.75C284.285 56.75 291 63.4648 291 71.75V80.1934C291 83.041 288.691 85.3496 285.838 85.3496L279.375 85.3438C278.889 86.1816 277.98 86.75 276.938 86.75H275.062C273.51 86.75 272.25 85.4902 272.25 83.9375C272.25 82.3848 273.51 81.125 275.062 81.125H276.938C277.98 81.125 278.889 81.6934 279.375 82.5312L285.844 82.5371C287.139 82.5371 288.188 81.4883 288.188 80.1934V71.75C288.188 65.0176 282.732 59.5625 276 59.5625ZM269.438 68.9375H270.375C271.412 68.9375 272.25 69.7754 272.25 70.8125V77.375C272.25 78.4121 271.412 79.25 270.375 79.25H269.438C267.369 79.25 265.688 77.5684 265.688 75.5V72.6875C265.688 70.6191 267.369 68.9375 269.438 68.9375ZM282.562 68.9375C284.631 68.9375 286.312 70.6191 286.312 72.6875V75.5C286.312 77.5684 284.631 79.25 282.562 79.25H281.625C280.588 79.25 279.75 78.4121 279.75 77.375V70.8125C279.75 69.7754 280.588 68.9375 281.625 68.9375H282.562Z" fill="white"/>
</g>
<path d="M32 144C32 139.582 35.5817 136 40 136H72C76.4183 136 80 139.582 80 144V176C80 180.418 76.4183 184 72 184H40C35.5817 184 32 180.418 32 176V144Z" fill="url(#paint1_linear_2172_176)"/>
<path d="M64 168H48V152H64V168Z" stroke="#E5E7EB"/>
<path d="M49.5 154C48.6719 154 48 154.672 48 155.5C48 155.972 48.2219 156.416 48.6 156.7L55.4 161.8C55.7562 162.066 56.2438 162.066 56.6 161.8L63.4 156.7C63.7781 156.416 64 155.972 64 155.5C64 154.672 63.3281 154 62.5 154H49.5ZM48 157.5V164C48 165.103 48.8969 166 50 166H62C63.1031 166 64 165.103 64 164V157.5L57.2 162.6C56.4875 163.134 55.5125 163.134 54.8 162.6L48 157.5Z" fill="#7B1FA2"/>
<path d="M516 156C518.209 156 520 157.791 520 160C520 162.209 518.209 164 516 164H96C93.7909 164 92 162.209 92 160C92 157.791 93.7909 156 96 156H516Z" fill="#E5E7EB"/>
<path d="M516 156C518.209 156 520 157.791 520 160C520 162.209 518.209 164 516 164H96C93.7909 164 92 162.209 92 160C92 157.791 93.7909 156 96 156H516Z" stroke="#E5E7EB"/>
<path d="M32 208C32 203.582 35.5817 200 40 200H72C76.4183 200 80 203.582 80 208V240C80 244.418 76.4183 248 72 248H40C35.5817 248 32 244.418 32 240V208Z" fill="url(#paint2_linear_2172_176)"/>
<g clip-path="url(#clip1_2172_176)">
<path d="M53.1531 216.769C52.9125 216.187 52.2781 215.878 51.6719 216.044L48.9219 216.794C48.3781 216.944 48 217.437 48 218C48 225.731 54.2688 232 62 232C62.5625 232 63.0563 231.622 63.2063 231.078L63.9563 228.328C64.1219 227.722 63.8125 227.087 63.2312 226.847L60.2312 225.597C59.7219 225.384 59.1313 225.531 58.7844 225.959L57.5219 227.5C55.3219 226.459 53.5406 224.678 52.5 222.478L54.0406 221.219C54.4688 220.869 54.6156 220.281 54.4031 219.772L53.1531 216.772V216.769Z" fill="#FF6F00"/>
</g>
<path d="M516 220C518.209 220 520 221.791 520 224C520 226.209 518.209 228 516 228H96C93.7909 228 92 226.209 92 224C92 221.791 93.7909 220 96 220H516Z" fill="#E5E7EB"/>
<path d="M516 220C518.209 220 520 221.791 520 224C520 226.209 518.209 228 516 228H96C93.7909 228 92 226.209 92 224C92 221.791 93.7909 220 96 220H516Z" stroke="#E5E7EB"/>
<path d="M32 272C32 267.582 35.5817 264 40 264H72C76.4183 264 80 267.582 80 272V304C80 308.418 76.4183 312 72 312H40C35.5817 312 32 308.418 32 304V272Z" fill="url(#paint3_linear_2172_176)"/>
<g clip-path="url(#clip2_2172_176)">
<path d="M52.5003 291C56.091 291 59.0003 288.538 59.0003 285.5C59.0003 282.463 56.091 280 52.5003 280C48.9097 280 46.0003 282.463 46.0003 285.5C46.0003 286.706 46.4597 287.822 47.2378 288.731C47.1285 289.025 46.966 289.284 46.7941 289.503C46.6441 289.697 46.491 289.847 46.3785 289.95C46.3222 290 46.2753 290.041 46.2441 290.066C46.2285 290.078 46.216 290.087 46.2097 290.091L46.2035 290.097C46.0316 290.225 45.9566 290.45 46.0253 290.653C46.0941 290.856 46.2847 291 46.5003 291C47.1816 291 47.8691 290.825 48.441 290.609C48.7285 290.5 48.9972 290.378 49.2316 290.253C50.191 290.728 51.3066 291 52.5003 291ZM60.0003 285.5C60.0003 289.009 56.9035 291.653 53.2347 291.969C53.9941 294.294 56.5128 296 59.5003 296C60.6941 296 61.8097 295.728 62.7722 295.253C63.0066 295.378 63.2722 295.5 63.5597 295.609C64.1316 295.825 64.8191 296 65.5003 296C65.716 296 65.9097 295.859 65.9753 295.653C66.041 295.447 65.9691 295.222 65.7941 295.094L65.7878 295.087C65.7816 295.081 65.7691 295.075 65.7535 295.062C65.7222 295.038 65.6753 295 65.6191 294.947C65.5066 294.844 65.3535 294.694 65.2035 294.5C65.0316 294.281 64.8691 294.019 64.7597 293.728C65.5378 292.822 65.9972 291.706 65.9972 290.497C65.9972 287.597 63.3441 285.219 59.9785 285.012C59.991 285.172 59.9972 285.334 59.9972 285.497L60.0003 285.5Z" fill="#7B1FA2"/>
</g>
<path d="M516 284C518.209 284 520 285.791 520 288C520 290.209 518.209 292 516 292H96C93.7909 292 92 290.209 92 288C92 285.791 93.7909 284 96 284H516Z" fill="#E5E7EB"/>
<path d="M516 284C518.209 284 520 285.791 520 288C520 290.209 518.209 292 516 292H96C93.7909 292 92 290.209 92 288C92 285.791 93.7909 284 96 284H516Z" stroke="#E5E7EB"/>
<defs>
<linearGradient id="paint0_linear_2172_176" x1="207.716" y1="60.2843" x2="264.284" y2="116.853" gradientUnits="userSpaceOnUse">
<stop stop-color="#000089"/>
<stop offset="1" stop-color="#9B7CCD"/>
</linearGradient>
<linearGradient id="paint1_linear_2172_176" x1="15.0294" y1="152.971" x2="48.9706" y2="186.912" gradientUnits="userSpaceOnUse">
<stop stop-color="#F3E8FF"/>
<stop offset="1" stop-color="#FFEDD5"/>
</linearGradient>
<linearGradient id="paint2_linear_2172_176" x1="15.0294" y1="216.971" x2="48.9706" y2="250.912" gradientUnits="userSpaceOnUse">
<stop stop-color="#F3E8FF"/>
<stop offset="1" stop-color="#FFEDD5"/>
</linearGradient>
<linearGradient id="paint3_linear_2172_176" x1="15.0294" y1="280.971" x2="48.9706" y2="314.912" gradientUnits="userSpaceOnUse">
<stop stop-color="#F3E8FF"/>
<stop offset="1" stop-color="#FFEDD5"/>
</linearGradient>
<clipPath id="clip0_2172_176">
<path d="M261 56.75H291V86.75H261V56.75Z" fill="white"/>
</clipPath>
<clipPath id="clip1_2172_176">
<path d="M48 216H64V232H48V216Z" fill="white"/>
</clipPath>
<clipPath id="clip2_2172_176">
<path d="M46 280H66V296H46V280Z" fill="white"/>
</clipPath>
</defs>
</svg>
