<svg width="177" height="40" viewBox="0 0 177 40" fill="none" xmlns="http://www.w3.org/2000/svg">
<rect width="39.7483" height="39.682" rx="6.62471" fill="url(#paint0_linear_2122_5191)"/>
<path d="M13.8816 9.86387C13.8816 9.74904 13.9523 9.61655 14.0406 9.57238C14.2526 9.43989 27.5903 9.43989 28.509 9.57238C30.7084 9.8727 32.6693 10.8973 34.1797 12.5226C35.7608 14.2185 36.4763 16.2059 36.3791 18.6615C36.2908 21.0552 35.54 22.8483 33.9059 24.5531C32.4838 26.037 30.8585 26.885 28.8358 27.1853C27.8023 27.3443 19.4993 27.3796 19.5523 27.2294C19.57 27.1853 20.312 25.9575 21.2129 24.5001L22.847 21.8502L25.5852 21.8237C26.1818 21.8377 26.5099 21.8726 27.1282 21.795C27.7765 21.6866 28.1133 21.5983 28.685 21.3312C29.2972 20.9973 29.7936 20.5687 30.1756 19.9069C30.5024 19.2798 30.6289 18.4583 30.2844 17.7694C29.9841 17.1599 29.4011 16.6034 28.7386 16.2943C28.35 16.1176 28.0181 15.9586 27.4263 15.9321H26.6645H22.9215H19.0792L16.9996 13.715L16.7876 13.4589C16.6728 13.3176 16.2577 12.8317 15.869 12.3813C14.0759 10.2879 13.8816 10.0494 13.8816 9.86387Z" fill="white"/>
<rect x="7.35327" y="18.5488" width="14.7069" height="2.05366" rx="1.02683" fill="url(#paint1_linear_2122_5191)"/>
<rect x="8.28101" y="23.2524" width="10.997" height="2.05366" rx="1.02683" fill="url(#paint2_linear_2122_5191)"/>
<rect x="3.3125" y="18.5488" width="2.98112" height="2.05366" rx="1.02683" fill="white"/>
<path d="M21.1327 18.2843L19.1121 15.8994H26.4656L18.3503 29.2151C17.8457 29.9255 17.5265 30.1668 16.8597 30.1757H14.6073C14.1869 30.1748 14.168 30.015 14.4748 29.4801L21.1327 18.2843Z" fill="url(#paint3_linear_2122_5191)"/>
<path d="M7.39263 15.932C6.15565 15.6398 6.2404 14.1108 7.3595 13.8452H26.803C32.1521 14.4928 31.9553 21.4843 26.803 21.828C30.9509 21.4508 31.1021 16.3453 26.803 15.932H7.39263Z" fill="url(#paint4_linear_2122_5191)"/>
<path d="M46.7604 27.1685V8.65683H54.579C56.6486 8.65683 58.1721 9.21256 59.1494 10.324C60.1267 11.4355 60.6154 12.8727 60.6154 14.6357C60.6154 16.4371 60.0597 17.8647 58.9482 18.9187C57.8559 19.9535 56.3612 20.4709 54.464 20.4709H49.1175V27.1685H46.7604ZM49.1175 18.6313H54.0903C55.4701 18.6313 56.5049 18.2767 57.1948 17.5677C57.9038 16.8395 58.2583 15.8622 58.2583 14.6357C58.2583 13.3326 57.923 12.3266 57.2523 11.6175C56.6007 10.8893 55.5946 10.5252 54.2341 10.5252H49.1175V18.6313ZM70.1883 27.4559C67.7546 27.4559 65.9341 26.8714 64.7268 25.7025C63.5195 24.5335 62.9159 22.7322 62.9159 20.2985C62.9159 18.1139 63.4333 16.3988 64.4681 15.1531C65.5221 13.8884 67.1797 13.256 69.4409 13.256C70.7824 13.256 71.8842 13.5051 72.7466 14.0034C73.6281 14.4824 74.2796 15.1531 74.7012 16.0155C75.142 16.8587 75.3624 17.8168 75.3624 18.89V21.4482H65.273C65.3496 22.4831 65.57 23.2975 65.9341 23.8916C66.3173 24.4856 66.8827 24.9168 67.63 25.1851C68.3965 25.4342 69.4026 25.5588 70.6482 25.5588C72.0471 25.5588 73.3311 25.3192 74.5 24.8401V26.6798C73.906 26.9289 73.2352 27.1205 72.4879 27.2547C71.7597 27.3888 70.9932 27.4559 70.1883 27.4559ZM65.273 19.7523H73.264V18.6313C73.264 17.5198 72.967 16.667 72.3729 16.073C71.798 15.4598 70.8399 15.1531 69.4984 15.1531C67.8696 15.1531 66.7581 15.5364 66.164 16.3029C65.57 17.0695 65.273 18.2193 65.273 19.7523ZM84.3941 27.4559C82.4777 27.4559 80.9734 26.9289 79.8811 25.8749C78.7888 24.8018 78.2427 23.0292 78.2427 20.5572C78.2427 18.1043 78.808 16.2742 79.9386 15.0669C81.0884 13.8596 82.6215 13.256 84.5378 13.256C86.2433 13.256 87.7189 13.6872 88.9645 14.5495V7.79449H91.3215V27.1685H89.3094L89.1369 25.7312C88.5046 26.3253 87.8051 26.766 87.0386 27.0535C86.2912 27.3218 85.4097 27.4559 84.3941 27.4559ZM84.9977 25.5588C85.7834 25.5588 86.5116 25.4246 87.1823 25.1563C87.853 24.888 88.4471 24.476 88.9645 23.9203V16.5041C88.4854 16.0826 87.9201 15.7568 87.2685 15.5268C86.617 15.2777 85.8792 15.1531 85.0552 15.1531C83.5413 15.1531 82.4202 15.5939 81.692 16.4754C80.9638 17.3377 80.5997 18.6983 80.5997 20.5572C80.5997 22.3393 80.9351 23.6233 81.6058 24.409C82.2765 25.1755 83.4072 25.5588 84.9977 25.5588ZM100.647 27.4559C98.7309 27.4559 97.2266 26.9289 96.1343 25.8749C95.042 24.8018 94.4958 23.0292 94.4958 20.5572C94.4958 18.1043 95.0611 16.2742 96.1918 15.0669C97.3415 13.8596 98.8746 13.256 100.791 13.256C102.496 13.256 103.972 13.6872 105.218 14.5495V7.79449H107.575V27.1685H105.563L105.39 25.7312C104.758 26.3253 104.058 26.766 103.292 27.0535C102.544 27.3218 101.663 27.4559 100.647 27.4559ZM101.251 25.5588C102.037 25.5588 102.765 25.4246 103.435 25.1563C104.106 24.888 104.7 24.476 105.218 23.9203V16.5041C104.739 16.0826 104.173 15.7568 103.522 15.5268C102.87 15.2777 102.132 15.1531 101.308 15.1531C99.7944 15.1531 98.6734 15.5939 97.9452 16.4754C97.217 17.3377 96.8529 18.6983 96.8529 20.5572C96.8529 22.3393 97.1882 23.6233 97.859 24.409C98.5297 25.1755 99.6603 25.5588 101.251 25.5588ZM113.433 32.2275C112.532 32.2275 111.747 32.103 111.076 31.8539V29.9567C111.402 30.0717 111.699 30.1483 111.967 30.1867C112.254 30.225 112.542 30.2441 112.829 30.2441C113.481 30.2441 113.989 30.1292 114.353 29.8992C114.736 29.6693 115.071 29.3147 115.359 28.8357C115.646 28.3757 115.963 27.7721 116.307 27.0247L110.3 13.5434H112.743L117.486 24.5239L122.373 13.5434H124.787L119.067 26.5648C118.588 27.6571 118.099 28.6249 117.601 29.468C117.103 30.3304 116.528 31.0011 115.876 31.4802C115.225 31.9784 114.41 32.2275 113.433 32.2275Z" fill="white"/>
<path d="M127.006 27.1685V8.65683H136.549C138.063 8.65683 139.309 8.96344 140.286 9.57666C141.283 10.1707 142.021 10.9852 142.5 12.02C142.979 13.0548 143.218 14.2046 143.218 15.4693C143.218 16.7724 142.94 17.9318 142.385 18.9475C141.829 19.9631 141.043 20.7584 140.028 21.3333C139.012 21.9082 137.814 22.1956 136.434 22.1956H132.41V27.1685H127.006ZM132.41 18.0564H135.198C136.042 18.0564 136.664 17.8168 137.067 17.3377C137.488 16.8587 137.699 16.2359 137.699 15.4693C137.699 14.6453 137.508 13.9938 137.124 13.5147C136.741 13.0356 136.147 12.7961 135.342 12.7961H132.41V18.0564ZM148.356 27.4559C147.493 27.4559 146.688 27.3026 145.941 26.996C145.213 26.6894 144.628 26.2103 144.188 25.5588C143.747 24.9072 143.527 24.0832 143.527 23.0867C143.527 21.6495 144.006 20.538 144.964 19.7523C145.922 18.9475 147.369 18.545 149.304 18.545H152.84V18.2863C152.84 17.7498 152.619 17.3569 152.179 17.1078C151.738 16.8587 150.962 16.7341 149.85 16.7341C148.279 16.7341 146.727 16.9736 145.194 17.4527V14.2046C145.884 13.9363 146.746 13.7159 147.781 13.5434C148.816 13.3518 149.87 13.256 150.943 13.256C153.108 13.256 154.823 13.6967 156.088 14.5783C157.353 15.4598 157.985 16.8587 157.985 18.775V27.1685H153.271L153.012 26.0762C152.533 26.4977 151.91 26.8331 151.144 27.0822C150.397 27.3313 149.467 27.4559 148.356 27.4559ZM150.195 24.294C150.809 24.294 151.326 24.1886 151.748 23.9778C152.188 23.767 152.552 23.5083 152.84 23.2017V21.5057H150.224C149.036 21.5057 148.442 21.9752 148.442 22.9142C148.442 23.8341 149.026 24.294 150.195 24.294ZM163.718 32.2275C162.951 32.2275 162.3 32.1796 161.763 32.0838C161.246 32.0072 160.728 31.873 160.211 31.6814V28.0021C160.518 28.117 160.805 28.1937 161.073 28.232C161.361 28.2703 161.658 28.2895 161.965 28.2895C162.731 28.2895 163.287 28.1937 163.632 28.0021C163.996 27.8104 164.36 27.4272 164.724 26.8523L158.573 13.5434H164.235L167.426 21.5632L170.53 13.5434H176.164L171.134 25.8749C170.348 27.8104 169.381 29.3531 168.231 30.5028C167.1 31.6526 165.596 32.2275 163.718 32.2275Z" fill="url(#paint5_linear_2122_5191)"/>
<defs>
<linearGradient id="paint0_linear_2122_5191" x1="39.7483" y1="38.6483" x2="0.0968966" y2="0.931883" gradientUnits="userSpaceOnUse">
<stop stop-color="#000089"/>
<stop offset="1" stop-color="#5215B6"/>
</linearGradient>
<linearGradient id="paint1_linear_2122_5191" x1="22.0601" y1="19.5685" x2="7.36735" y2="20.0305" gradientUnits="userSpaceOnUse">
<stop stop-color="#2A0296"/>
<stop offset="1" stop-color="white"/>
</linearGradient>
<linearGradient id="paint2_linear_2122_5191" x1="19.278" y1="24.2721" x2="8.28675" y2="24.5306" gradientUnits="userSpaceOnUse">
<stop stop-color="#2A0296"/>
<stop offset="1" stop-color="white"/>
</linearGradient>
<linearGradient id="paint3_linear_2122_5191" x1="20.3655" y1="15.8994" x2="20.3655" y2="30.1757" gradientUnits="userSpaceOnUse">
<stop stop-color="#FEA152"/>
<stop offset="1" stop-color="#FF5B15"/>
</linearGradient>
<linearGradient id="paint4_linear_2122_5191" x1="6.49243" y1="17.8366" x2="30.7414" y2="17.8366" gradientUnits="userSpaceOnUse">
<stop stop-color="white"/>
<stop offset="0.5" stop-color="#AE49FB"/>
<stop offset="1" stop-color="#0D0068"/>
</linearGradient>
<linearGradient id="paint5_linear_2122_5191" x1="151.213" y1="-4.83154" x2="151.213" y2="38.1685" gradientUnits="userSpaceOnUse">
<stop stop-color="#FEA152"/>
<stop offset="1" stop-color="#FF5B15"/>
</linearGradient>
</defs>
</svg>
