<svg width="177" height="40" viewBox="0 0 177 40" fill="none" xmlns="http://www.w3.org/2000/svg">
<rect width="39.7483" height="39.682" rx="6.62471" fill="url(#paint0_linear_2122_5299)"/>
<path d="M13.8816 9.86411C13.8816 9.74929 13.9523 9.61679 14.0406 9.57263C14.2526 9.44013 27.5903 9.44013 28.509 9.57263C30.7084 9.87295 32.6693 10.8976 34.1797 12.5228C35.7608 14.2188 36.4763 16.2062 36.3791 18.6617C36.2908 21.0555 35.54 22.8485 33.9059 24.5533C32.4838 26.0372 30.8585 26.8852 28.8358 27.1855C27.8023 27.3445 19.4993 27.3798 19.5523 27.2297C19.57 27.1855 20.312 25.9577 21.2129 24.5003L22.847 21.8504L25.5852 21.8239C26.1818 21.8379 26.5099 21.8728 27.1282 21.7952C27.7765 21.6869 28.1133 21.5985 28.685 21.3315C29.2972 20.9976 29.7936 20.569 30.1756 19.9072C30.5024 19.28 30.6289 18.4586 30.2844 17.7696C29.9841 17.1601 29.4011 16.6037 28.7386 16.2945C28.35 16.1178 28.0181 15.9588 27.4263 15.9324H26.6645H22.9215H19.0792L16.9996 13.7153L16.7876 13.4591C16.6728 13.3178 16.2577 12.832 15.869 12.3815C14.0759 10.2881 13.8816 10.0496 13.8816 9.86411Z" fill="white"/>
<rect x="7.35327" y="18.5491" width="14.7069" height="2.05366" rx="1.02683" fill="url(#paint1_linear_2122_5299)"/>
<rect x="8.28101" y="23.2527" width="10.997" height="2.05366" rx="1.02683" fill="url(#paint2_linear_2122_5299)"/>
<rect x="3.3125" y="18.5491" width="2.98112" height="2.05366" rx="1.02683" fill="white"/>
<path d="M21.1327 18.2841L19.1121 15.8992H26.4656L18.3503 29.2148C17.8457 29.9253 17.5265 30.1665 16.8597 30.1754H14.6073C14.1869 30.1745 14.168 30.0148 14.4748 29.4798L21.1327 18.2841Z" fill="url(#paint3_linear_2122_5299)"/>
<path d="M7.39263 15.9322C6.15565 15.64 6.2404 14.1111 7.3595 13.8455H26.803C32.1521 14.493 31.9553 21.4846 26.803 21.8282C30.9509 21.451 31.1021 16.3455 26.803 15.9322H7.39263Z" fill="url(#paint4_linear_2122_5299)"/>
<path d="M46.7604 27.1687V8.65707H54.579C56.6486 8.65707 58.1721 9.2128 59.1494 10.3243C60.1267 11.4357 60.6154 12.873 60.6154 14.636C60.6154 16.4373 60.0597 17.865 58.9482 18.919C57.8559 19.9538 56.3612 20.4712 54.464 20.4712H49.1175V27.1687H46.7604ZM49.1175 18.6315H54.0903C55.4701 18.6315 56.5049 18.277 57.1948 17.5679C57.9038 16.8397 58.2583 15.8624 58.2583 14.636C58.2583 13.3329 57.923 12.3268 57.2523 11.6178C56.6007 10.8896 55.5946 10.5255 54.2341 10.5255H49.1175V18.6315ZM70.1883 27.4561C67.7546 27.4561 65.9341 26.8717 64.7268 25.7027C63.5195 24.5338 62.9159 22.7324 62.9159 20.2987C62.9159 18.1141 63.4333 16.399 64.4681 15.1534C65.5221 13.8886 67.1797 13.2562 69.4409 13.2562C70.7824 13.2562 71.8842 13.5054 72.7466 14.0036C73.6281 14.4827 74.2796 15.1534 74.7012 16.0157C75.142 16.8589 75.3624 17.8171 75.3624 18.8902V21.4485H65.273C65.3496 22.4833 65.57 23.2977 65.9341 23.8918C66.3173 24.4859 66.8827 24.917 67.63 25.1853C68.3965 25.4344 69.4026 25.559 70.6482 25.559C72.0471 25.559 73.3311 25.3195 74.5 24.8404V26.68C73.906 26.9292 73.2352 27.1208 72.4879 27.2549C71.7597 27.3891 70.9932 27.4561 70.1883 27.4561ZM65.273 19.7526H73.264V18.6315C73.264 17.52 72.967 16.6673 72.3729 16.0732C71.798 15.46 70.8399 15.1534 69.4984 15.1534C67.8696 15.1534 66.7581 15.5367 66.164 16.3032C65.57 17.0697 65.273 18.2195 65.273 19.7526ZM84.3941 27.4561C82.4777 27.4561 80.9734 26.9292 79.8811 25.8752C78.7888 24.802 78.2427 23.0295 78.2427 20.5574C78.2427 18.1045 78.808 16.2744 79.9386 15.0672C81.0884 13.8599 82.6215 13.2562 84.5378 13.2562C86.2433 13.2562 87.7189 13.6874 88.9645 14.5498V7.79473H91.3215V27.1687H89.3094L89.1369 25.7315C88.5046 26.3255 87.8051 26.7663 87.0386 27.0537C86.2912 27.322 85.4097 27.4561 84.3941 27.4561ZM84.9977 25.559C85.7834 25.559 86.5116 25.4249 87.1823 25.1566C87.853 24.8883 88.4471 24.4763 88.9645 23.9205V16.5044C88.4854 16.0828 87.9201 15.757 87.2685 15.5271C86.617 15.278 85.8792 15.1534 85.0552 15.1534C83.5413 15.1534 82.4202 15.5941 81.692 16.4756C80.9638 17.338 80.5997 18.6986 80.5997 20.5574C80.5997 22.3396 80.9351 23.6235 81.6058 24.4092C82.2765 25.1757 83.4072 25.559 84.9977 25.559ZM100.647 27.4561C98.7309 27.4561 97.2266 26.9292 96.1343 25.8752C95.042 24.802 94.4958 23.0295 94.4958 20.5574C94.4958 18.1045 95.0611 16.2744 96.1918 15.0672C97.3415 13.8599 98.8746 13.2562 100.791 13.2562C102.496 13.2562 103.972 13.6874 105.218 14.5498V7.79473H107.575V27.1687H105.563L105.39 25.7315C104.758 26.3255 104.058 26.7663 103.292 27.0537C102.544 27.322 101.663 27.4561 100.647 27.4561ZM101.251 25.559C102.037 25.559 102.765 25.4249 103.435 25.1566C104.106 24.8883 104.7 24.4763 105.218 23.9205V16.5044C104.739 16.0828 104.173 15.757 103.522 15.5271C102.87 15.278 102.132 15.1534 101.308 15.1534C99.7944 15.1534 98.6734 15.5941 97.9452 16.4756C97.217 17.338 96.8529 18.6986 96.8529 20.5574C96.8529 22.3396 97.1882 23.6235 97.859 24.4092C98.5297 25.1757 99.6603 25.559 101.251 25.559ZM113.433 32.2278C112.532 32.2278 111.747 32.1032 111.076 31.8541V29.9569C111.402 30.0719 111.699 30.1486 111.967 30.1869C112.254 30.2252 112.542 30.2444 112.829 30.2444C113.481 30.2444 113.989 30.1294 114.353 29.8995C114.736 29.6695 115.071 29.315 115.359 28.8359C115.646 28.376 115.963 27.7723 116.307 27.025L110.3 13.5437H112.743L117.486 24.5242L122.373 13.5437H124.787L119.067 26.5651C118.588 27.6574 118.099 28.6251 117.601 29.4683C117.103 30.3306 116.528 31.0013 115.876 31.4804C115.225 31.9787 114.41 32.2278 113.433 32.2278Z" fill="black"/>
<path d="M127.006 27.1687V8.65707H136.549C138.063 8.65707 139.309 8.96368 140.286 9.57691C141.283 10.171 142.021 10.9854 142.5 12.0202C142.979 13.055 143.218 14.2048 143.218 15.4696C143.218 16.7727 142.94 17.9321 142.385 18.9477C141.829 19.9633 141.043 20.7586 140.028 21.3335C139.012 21.9084 137.814 22.1959 136.434 22.1959H132.41V27.1687H127.006ZM132.41 18.0566H135.198C136.042 18.0566 136.664 17.8171 137.067 17.338C137.488 16.8589 137.699 16.2361 137.699 15.4696C137.699 14.6456 137.508 13.994 137.124 13.5149C136.741 13.0359 136.147 12.7963 135.342 12.7963H132.41V18.0566ZM148.356 27.4561C147.493 27.4561 146.688 27.3028 145.941 26.9962C145.213 26.6896 144.628 26.2105 144.188 25.559C143.747 24.9074 143.527 24.0834 143.527 23.0869C143.527 21.6497 144.006 20.5382 144.964 19.7526C145.922 18.9477 147.369 18.5453 149.304 18.5453H152.84V18.2866C152.84 17.75 152.619 17.3572 152.179 17.108C151.738 16.8589 150.962 16.7344 149.85 16.7344C148.279 16.7344 146.727 16.9739 145.194 17.453V14.2048C145.884 13.9365 146.746 13.7162 147.781 13.5437C148.816 13.3521 149.87 13.2562 150.943 13.2562C153.108 13.2562 154.823 13.697 156.088 14.5785C157.353 15.46 157.985 16.8589 157.985 18.7752V27.1687H153.271L153.012 26.0764C152.533 26.498 151.91 26.8333 151.144 27.0825C150.397 27.3316 149.467 27.4561 148.356 27.4561ZM150.195 24.2942C150.809 24.2942 151.326 24.1888 151.748 23.978C152.188 23.7672 152.552 23.5085 152.84 23.2019V21.506H150.224C149.036 21.506 148.442 21.9755 148.442 22.9145C148.442 23.8343 149.026 24.2942 150.195 24.2942ZM163.718 32.2278C162.951 32.2278 162.3 32.1799 161.763 32.0841C161.246 32.0074 160.728 31.8733 160.211 31.6816V28.0023C160.518 28.1173 160.805 28.1939 161.073 28.2323C161.361 28.2706 161.658 28.2897 161.965 28.2897C162.731 28.2897 163.287 28.1939 163.632 28.0023C163.996 27.8107 164.36 27.4274 164.724 26.8525L158.573 13.5437H164.235L167.426 21.5635L170.53 13.5437H176.164L171.134 25.8752C170.348 27.8107 169.381 29.3533 168.231 30.5031C167.1 31.6529 165.596 32.2278 163.718 32.2278Z" fill="url(#paint5_linear_2122_5299)"/>
<defs>
<linearGradient id="paint0_linear_2122_5299" x1="39.7483" y1="38.6483" x2="0.0968966" y2="0.931883" gradientUnits="userSpaceOnUse">
<stop stop-color="#000089"/>
<stop offset="1" stop-color="#5215B6"/>
</linearGradient>
<linearGradient id="paint1_linear_2122_5299" x1="22.0601" y1="19.5687" x2="7.36735" y2="20.0308" gradientUnits="userSpaceOnUse">
<stop stop-color="#2A0296"/>
<stop offset="1" stop-color="white"/>
</linearGradient>
<linearGradient id="paint2_linear_2122_5299" x1="19.278" y1="24.2723" x2="8.28675" y2="24.5308" gradientUnits="userSpaceOnUse">
<stop stop-color="#2A0296"/>
<stop offset="1" stop-color="white"/>
</linearGradient>
<linearGradient id="paint3_linear_2122_5299" x1="20.3655" y1="15.8992" x2="20.3655" y2="30.1754" gradientUnits="userSpaceOnUse">
<stop stop-color="#FEA152"/>
<stop offset="1" stop-color="#FF5B15"/>
</linearGradient>
<linearGradient id="paint4_linear_2122_5299" x1="6.49243" y1="17.8368" x2="30.7414" y2="17.8368" gradientUnits="userSpaceOnUse">
<stop stop-color="white"/>
<stop offset="0.5" stop-color="#AE49FB"/>
<stop offset="1" stop-color="#0D0068"/>
</linearGradient>
<linearGradient id="paint5_linear_2122_5299" x1="151.213" y1="-4.8313" x2="151.213" y2="38.1687" gradientUnits="userSpaceOnUse">
<stop stop-color="#FEA152"/>
<stop offset="1" stop-color="#FF5B15"/>
</linearGradient>
</defs>
</svg>
